<svg xmlns="http://www.w3.org/2000/svg" viewBox="0 0 430 430" width="430" height="430">
  <path fill="#3B82F6" d="M215,0C96.3,0,0,96.3,0,215s96.3,215,215,215s215-96.3,215-215S333.7,0,215,0z M110.2,328.8
    c-49.1-49.1-49.1-129,0-178.1c24.5-24.5,56.8-36.8,89-36.8s64.5,12.3,89.1,36.8l-28.5,28.5c-16.7-16.7-38.8-25.1-60.6-25.1
    s-43.9,8.4-60.5,25.1c-33.4,33.4-33.4,87.7,0,121.1c16.7,16.7,38.8,25.1,60.5,25.1c21.8,0,43.9-8.4,60.6-25.1l28.5,28.5
    C245.1,375.6,159.3,377.9,110.2,328.8z M340.3,328.8l-28.5-28.5c33.4-33.4,33.4-87.7,0-121.1l28.5-28.5c24.5,24.5,36.8,56.8,36.8,89
    C377.1,272,364.8,304.3,340.3,328.8z"/>
</svg> 